<svg width="126" height="129" viewBox="0 0 126 129" fill="none" xmlns="http://www.w3.org/2000/svg">
<g clip-path="url(#clip0_46_861)">
<path d="M73.5654 39.074C72.5203 37.8916 72.0573 36.4032 72.1432 34.9487C72.2292 33.4942 72.8639 32.0763 74.0404 31.0364C76.3795 28.9688 79.9726 29.2006 82.0629 31.5654L95.199 46.4265C106.464 59.171 119.851 80.755 104.293 94.507C98.7006 99.4504 90.7287 102.96 82.337 101.692L43.8615 93.7271C41.8625 93.3109 40.2038 92.7204 39.0169 91.3777C37.83 90.0349 37.1526 88.2145 37.2661 86.2935C37.4964 82.3965 40.8507 79.4589 44.7161 79.7331L63.5926 81.0951L25.836 38.3802C24.675 37.0667 24.1528 35.4219 24.2624 33.7901C24.3526 32.0189 25.2269 30.2848 26.7969 29.1057C29.4615 27.1156 33.3058 27.7462 35.5256 30.2575L50.4561 47.1488C49.411 45.9664 48.9494 44.4768 49.0339 43.0235C49.1046 41.5825 49.767 40.165 50.9296 39.1374C53.2826 37.0575 56.8482 37.2862 58.9385 39.6511L61.777 42.8623C60.7318 41.6799 60.2702 40.1903 60.3548 38.737C60.4407 37.2825 61.0755 35.8646 62.252 34.8246C64.5911 32.757 68.1842 32.9888 70.2745 35.3537L73.5653 39.0766L73.5654 39.074Z" fill="white"/>
<path d="M63.0674 44.3221C62.2655 45.0309 61.0368 44.9521 60.3244 44.1462L57.486 40.9349C56.0969 39.3635 53.7823 39.2137 52.2188 40.5958C51.4751 41.2531 51.0209 42.1762 50.9751 43.1282C50.9147 44.1503 51.2469 45.116 51.9087 45.8648C52.6211 46.6707 52.5485 47.8998 51.7466 48.6086C50.9447 49.3174 49.716 49.2386 49.0036 48.4327C47.6528 46.9045 46.9734 44.9392 47.0952 42.8991C47.192 40.9284 48.1214 39.019 49.6405 37.6761C52.7802 34.901 57.6033 35.2103 60.3937 38.3672L63.2322 41.5784C63.9446 42.3843 63.872 43.6135 63.0701 44.3223L63.0674 44.3221Z" fill="black"/>
<path d="M76.3846 59.3883C75.5827 60.0971 74.354 60.0183 73.6416 59.2123L66.8789 51.5615C66.1665 50.7555 66.2391 49.5264 67.041 48.8176C67.8429 48.1088 69.0716 48.1876 69.784 48.9935L76.5468 56.6444C77.2592 57.4504 77.1865 58.6795 76.3846 59.3883Z" fill="black"/>
<path d="M69.6231 51.7389C68.8212 52.4477 67.5925 52.3689 66.8801 51.563L60.3244 44.1463C58.9724 42.6167 58.2944 40.6502 58.4163 38.6101C58.5354 36.5724 59.441 34.7089 60.9629 33.3636C64.1026 30.5884 68.9319 30.9048 71.7272 34.0672L75.018 37.7901C75.7304 38.5961 75.6578 39.8252 74.8559 40.534C74.054 41.2428 72.8253 41.164 72.1129 40.3581L68.8221 36.6351C67.4491 35.0818 65.081 34.9246 63.5438 36.2834C62.7974 36.9432 62.3555 37.8579 62.2963 38.859C62.2356 39.8639 62.5677 40.8296 63.2296 41.5784L69.7853 48.995C70.4977 49.801 70.425 51.0301 69.6231 51.7389Z" fill="black"/>
<path d="M87.4632 54.7967C86.6613 55.5056 85.4326 55.4268 84.7202 54.6208L79.5843 48.8105C78.8719 48.0045 78.9446 46.7754 79.7465 46.0666C80.5484 45.3578 81.7771 45.4366 82.4895 46.2426L87.6253 52.0529C88.3377 52.8588 88.2651 54.0879 87.4632 54.7967Z" fill="black"/>
<path d="M105.584 95.9646C98.7054 102.045 90.1305 104.833 82.0569 103.611L43.4784 95.6311C41.4808 95.2136 39.2211 94.536 37.5646 92.6619C35.9081 90.7879 35.1861 88.5648 35.3276 86.1695C35.4692 83.7742 36.5321 81.5853 38.3232 80.0021L38.3482 79.98C40.1482 78.4013 42.4544 77.6246 44.8441 77.795L58.99 78.8154L24.3837 39.6644C22.9059 37.9926 22.1748 35.857 22.3237 33.6489C22.4446 31.2694 23.6533 29.0385 25.6242 27.5498C29.0332 25.001 34.019 25.6286 36.977 28.975L65.8571 61.6478C66.5695 62.4538 66.4969 63.6829 65.695 64.3917C64.8931 65.1005 63.6644 65.0217 62.952 64.2157L34.0719 31.543C32.4746 29.7359 29.7352 29.3431 27.9634 30.6658C26.9228 31.454 26.2651 32.6364 26.201 33.9002C26.12 35.092 26.5073 36.2151 27.2862 37.0963L65.044 79.8127C65.5679 80.4053 65.6834 81.2545 65.3366 81.961C64.9911 82.6662 64.2493 83.0934 63.4624 83.0364L44.5847 81.673C43.2387 81.5761 41.9346 82.016 40.9167 82.9082L40.9029 82.9205C39.8873 83.8182 39.2854 85.058 39.2038 86.4168C39.1236 87.7743 39.5725 89.0789 40.4673 90.0912C41.1908 90.9097 42.2867 91.4114 44.2479 91.8214L82.7183 99.7829C89.5502 100.813 96.9809 98.3631 103.001 93.0421C118.616 79.2398 101.73 56.7395 93.7444 47.7054L80.6083 32.8443C79.2353 31.2909 76.866 31.1324 75.3288 32.4912C74.5838 33.1497 74.1405 34.0657 74.0811 35.0694C74.0218 36.0731 74.354 37.0388 75.0158 37.7876L82.4873 46.2402C83.1997 47.0462 83.127 48.2753 82.3251 48.9841C81.5232 49.6929 80.2945 49.6141 79.5821 48.8081L72.1107 40.3555C70.7586 38.8259 70.0819 36.8608 70.2011 34.8205C70.3204 32.7802 71.226 30.9166 72.7466 29.5726C75.8862 26.7974 80.7155 27.1138 83.5121 30.2776L96.6481 45.1387C105.409 55.0499 123.817 79.8431 105.58 95.9631L105.584 95.9646Z" fill="black"/>
</g>
<defs>
<clipPath id="clip0_46_861">
<rect width="75.7443" height="104.242" fill="white" transform="translate(0 50.1641) rotate(-41.4741)"/>
</clipPath>
</defs>
</svg>
